<svg width="21" height="21" viewBox="0 0 21 21" fill="none" xmlns="http://www.w3.org/2000/svg">
<path fill-rule="evenodd" clip-rule="evenodd" d="M20.0005 13.4532C20.0005 13.2806 19.8601 13.1401 19.6875 13.1401H1.3125C1.1399 13.1401 0.999466 13.2806 0.999466 13.4532V16.0782C0.999466 16.2508 1.1399 16.3912 1.3125 16.3912H19.6875C19.8601 16.3912 20.0005 16.2508 20.0005 16.0782V13.4532ZM19.3745 13.7662V15.7651H1.62553V13.7662H19.3745Z" fill="#2A2A3B"/>
<path fill-rule="evenodd" clip-rule="evenodd" d="M17.3755 4.17707C17.3755 3.94345 17.2823 3.71967 17.1176 3.55429C16.9522 3.38957 16.7285 3.29639 16.4948 3.29639H4.50515C4.27153 3.29639 4.04775 3.38957 3.88237 3.55429C3.71765 3.71967 3.62447 3.94345 3.62447 4.17707C3.62447 5.53551 3.62447 8.85942 3.62447 8.85942C3.62447 9.03201 3.7649 9.17245 3.9375 9.17245H17.0625C17.2351 9.17245 17.3755 9.03201 17.3755 8.85942V4.17707ZM16.7495 4.17707V8.54639H4.25053V4.17707C4.25053 4.10948 4.27744 4.04451 4.32469 3.99661C4.37259 3.94936 4.43756 3.92245 4.50515 3.92245H16.4948C16.5624 3.92245 16.6274 3.94936 16.6753 3.99661C16.7226 4.04451 16.7495 4.10948 16.7495 4.17707Z" fill="#2A2A3B"/>
<path fill-rule="evenodd" clip-rule="evenodd" d="M20.0005 11.5474C20.0005 10.7514 19.6842 9.98817 19.1212 9.42576C18.5587 8.8627 17.7955 8.54639 16.9995 8.54639C13.5174 8.54639 7.48256 8.54639 4.0005 8.54639C3.20447 8.54639 2.44125 8.8627 1.87884 9.42576C1.31578 9.98817 0.999466 10.7514 0.999466 11.5474C0.999466 12.5515 0.999466 13.4532 0.999466 13.4532C0.999466 13.6258 1.1399 13.7662 1.3125 13.7662H19.6875C19.8601 13.7662 20.0005 13.6258 20.0005 13.4532V11.5474ZM19.3745 11.5474V13.1401H1.62553V11.5474C1.62553 10.9174 1.87556 10.3137 2.32115 9.86807C2.76675 9.42248 3.3705 9.17245 4.0005 9.17245C7.48256 9.17245 13.5174 9.17245 16.9995 9.17245C17.6295 9.17245 18.2332 9.42248 18.6788 9.86807C19.1244 10.3137 19.3745 10.9174 19.3745 11.5474Z" fill="#2A2A3B"/>
<path fill-rule="evenodd" clip-rule="evenodd" d="M9.8024 6.78836C9.77156 6.69911 9.70199 6.62823 9.61274 6.59608C8.22806 6.0993 6.84402 6.07698 5.45934 6.59805C5.36615 6.63283 5.29593 6.70961 5.26837 6.80542C5.05902 7.5437 5.07871 8.25377 5.26771 8.94217C5.30512 9.07802 5.42849 9.17251 5.56959 9.17251H9.50709C9.63965 9.17251 9.75843 9.08851 9.8024 8.96317C10.04 8.28592 10.0721 7.56733 9.8024 6.78836ZM9.25706 7.13551C9.40209 7.63361 9.39618 8.10151 9.27674 8.54645H5.81568C5.72052 8.08708 5.71659 7.61523 5.83077 7.12961C6.97265 6.73586 8.11452 6.75555 9.2564 7.13486L9.25706 7.13551Z" fill="#2A2A3B"/>
<path fill-rule="evenodd" clip-rule="evenodd" d="M15.6916 6.78836C15.6608 6.69911 15.5905 6.62823 15.5019 6.59608C14.1173 6.0993 12.7326 6.07698 11.3485 6.59805C11.2553 6.63283 11.1845 6.70961 11.1576 6.80542C10.9476 7.5437 10.9679 8.25377 11.1569 8.94217C11.1943 9.07802 11.3177 9.17251 11.4588 9.17251H15.3963C15.5288 9.17251 15.647 9.08851 15.6909 8.96317C15.9292 8.28592 15.9613 7.56733 15.6916 6.78836ZM15.1456 7.13551C15.2913 7.63361 15.2847 8.10151 15.1659 8.54645C15.1653 8.54645 11.7049 8.54645 11.7049 8.54645C11.6091 8.08708 11.6058 7.61523 11.72 7.12961C12.8618 6.73586 14.0037 6.75555 15.1456 7.13486V7.13551Z" fill="#2A2A3B"/>
<path fill-rule="evenodd" clip-rule="evenodd" d="M5.89115 16.0782C5.89115 15.9056 5.75072 15.7651 5.57812 15.7651H3.60937C3.43678 15.7651 3.29634 15.9056 3.29634 16.0782V17.3907C3.29634 17.5633 3.43678 17.7037 3.60937 17.7037H5.57812C5.75072 17.7037 5.89115 17.5633 5.89115 17.3907V16.0782ZM5.26509 16.3912V17.0776H3.9224V16.3912H5.26509Z" fill="#2A2A3B"/>
<path fill-rule="evenodd" clip-rule="evenodd" d="M17.7037 16.0782C17.7037 15.9056 17.5632 15.7651 17.3906 15.7651H15.4219C15.2493 15.7651 15.1088 15.9056 15.1088 16.0782V17.3907C15.1088 17.5633 15.2493 17.7037 15.4219 17.7037H17.3906C17.5632 17.7037 17.7037 17.5633 17.7037 17.3907V16.0782ZM17.0776 16.3912V17.0776H15.7349V16.3912H17.0776Z" fill="#2A2A3B"/>
</svg>
