<svg width="50" height="50" viewBox="0 0 50 50" fill="none" xmlns="http://www.w3.org/2000/svg">
<path fill-rule="evenodd" clip-rule="evenodd" d="M15.2767 13.3929C14.9006 13.3929 14.4911 13.5474 14.2492 13.8584C14.0073 14.1694 13.9607 14.5423 14.0029 14.8652L14.2303 16.5935H7.23178C6.31704 16.5935 5.66815 17.3162 5.51065 18.0896C5.35315 18.8629 5.72926 19.8278 6.64652 20.2514L9.11986 21.3927L7.28407 24.9356H4.59528C3.98608 24.9356 3.48964 24.9443 3.00455 25.1802C2.51883 25.4155 2.19502 25.8491 1.91656 26.3766L0.473886 29.111C0.169601 29.6879 -0.00553635 30.1347 0.000133551 30.6128C0.00580345 31.0908 0.173381 31.44 0.339698 31.8642L1.56629 34.9916C1.75654 35.4759 2.0539 35.9295 2.51505 36.2198C2.9762 36.5102 3.52996 36.6072 4.17633 36.6072H40.1204C41.2884 36.6072 42.36 36.1811 42.9799 35.2031L49.6723 25.3235C50.5051 24.0946 49.6597 22.3207 48.1603 22.3207H33.7676C33.6649 22.3207 33.5634 22.3426 33.4696 22.3858L32.2896 22.9164L29.2468 21.1994L26.7123 18.4606C25.2306 16.86 23.6014 16.5947 21.5275 16.5947H20.1604L17.9838 14.0724C17.6701 13.7089 17.1755 13.3941 16.5197 13.3941H15.2767V13.3929ZM15.4399 14.8108H16.5191C16.652 14.8108 16.8366 14.9221 16.8958 14.9904L19.2904 17.7623C19.4252 17.9194 19.6224 18.0107 19.8303 18.0113H21.5269C23.517 18.0113 24.4443 18.1058 25.6615 19.4205L28.2703 22.2375C28.3213 22.2932 28.3812 22.3401 28.4473 22.377L30.6819 23.6385L27.7915 24.9362H8.89558L10.7289 21.3884C10.916 21.0292 10.7635 20.5874 10.3943 20.4179L7.24564 18.9674C6.86891 18.7935 6.86387 18.6026 6.91112 18.3724C6.95837 18.1421 7.09948 18.012 7.23241 18.012H15.0443C15.4739 18.0113 15.8059 17.6365 15.7518 17.2129L15.4399 14.8108ZM33.9162 23.7398H48.1597C48.4167 23.7398 48.6889 24.2423 48.4904 24.5345L41.7854 34.4284C41.3205 35.1142 40.7044 35.1899 40.1204 35.1899H4.17633C3.68179 35.1899 3.42476 35.1111 3.27797 35.0191C3.13118 34.9271 3.02282 34.7951 2.89682 34.4741L1.67024 31.3517C1.49636 30.9093 1.42958 30.7141 1.42769 30.594C1.4258 30.4738 1.47368 30.2705 1.7389 29.768L3.18095 27.033C3.40208 26.6144 3.51169 26.5143 3.63139 26.4561C3.75109 26.3979 4.03207 26.3547 4.59465 26.3547H27.9496C28.051 26.3541 28.1506 26.3322 28.2426 26.2896L33.9162 23.7398Z" fill="#BD272D"/>
<path fill-rule="evenodd" clip-rule="evenodd" d="M29.9078 26.7857C28.6789 26.7857 27.6786 27.7924 27.6786 29.0153C27.6786 30.2383 28.6796 31.25 29.9078 31.25C31.1368 31.25 32.1428 30.239 32.1428 29.0153C32.1421 27.7916 31.1361 26.7857 29.9078 26.7857ZM29.9078 27.8666C30.5428 27.8666 31.0541 28.3699 31.0541 29.0153C31.0541 29.6608 30.5428 30.1698 29.9078 30.1698C29.2728 30.1698 28.7666 29.6622 28.7666 29.0153C28.7666 28.3685 29.2728 27.8666 29.9078 27.8666Z" fill="#BD272D"/>
<path fill-rule="evenodd" clip-rule="evenodd" d="M35.712 26.7857C34.7288 26.7857 33.9286 27.7924 33.9286 29.0153C33.9286 30.2383 34.7294 31.25 35.712 31.25C36.6951 31.25 37.5 30.239 37.5 29.0153C37.5 27.7916 36.6946 26.7857 35.712 26.7857ZM35.712 27.8666C36.22 27.8666 36.629 28.3699 36.629 29.0153C36.629 29.6608 36.22 30.1698 35.712 30.1698C35.204 30.1698 34.799 29.6622 34.799 29.0153C34.799 28.3685 35.204 27.8666 35.712 27.8666Z" fill="#BD272D"/>
<path fill-rule="evenodd" clip-rule="evenodd" d="M40.625 26.7857C39.3944 26.7857 38.3929 27.7909 38.3929 29.0153C38.3929 30.239 39.3959 31.25 40.625 31.25C41.8548 31.25 42.8571 30.2383 42.8571 29.0153C42.8571 27.7924 41.8548 26.7857 40.625 26.7857ZM40.625 27.8666C41.2608 27.8666 41.7677 28.3692 41.7677 29.0153C41.7677 29.6622 41.2615 30.1698 40.625 30.1698C39.9885 30.1698 39.4772 29.6608 39.4772 29.0153C39.4765 28.3699 39.9892 27.8666 40.625 27.8666Z" fill="#BD272D"/>
<path fill-rule="evenodd" clip-rule="evenodd" d="M21.5934 19.6429L15.436 19.6521C15.2468 19.6521 15.0362 19.6718 14.8263 19.7745C14.6163 19.8771 14.4296 20.0714 14.3237 20.3006L13.4762 22.1386C13.3684 22.3722 13.3438 22.6992 13.5324 22.9328C13.7209 23.1664 13.9782 23.2143 14.1888 23.2143L24.9971 23.21C25.2979 23.2094 25.6353 23.1184 25.8162 22.7791C25.9064 22.6094 25.9146 22.3925 25.8534 22.2167C25.7954 22.0501 25.6901 21.9136 25.5602 21.7901L24.3685 20.5607C23.591 19.7572 22.9384 19.6411 21.5934 19.6429ZM21.589 20.5674C21.8778 20.5662 22.3034 20.5643 22.6552 20.6412C23.0071 20.718 23.306 20.8582 23.6982 21.2178L24.7317 22.2794L14.4542 22.2837L15.1945 20.6817C15.2487 20.565 15.3704 20.5772 15.4366 20.5772L21.589 20.5674Z" fill="#BD272D"/>
</svg>
