<svg width="48" height="48" viewBox="0 0 48 48" fill="none" xmlns="http://www.w3.org/2000/svg">
<path d="M24 5C13.5239 5 5 13.5239 5 24C5 34.4761 13.5239 43 24 43C34.4761 43 43 34.4761 43 24C43 13.5239 34.4761 5 24 5ZM24.7917 41.3969V39.8333C24.7917 39.3963 24.437 39.0417 24 39.0417C23.563 39.0417 23.2083 39.3963 23.2083 39.8333V41.3969C14.2332 40.9931 7.00687 33.7668 6.60312 24.7917H8.16667C8.60367 24.7917 8.95833 24.437 8.95833 24C8.95833 23.563 8.60367 23.2083 8.16667 23.2083H6.60312C7.00687 14.2332 14.2332 7.00687 23.2083 6.60312V8.16667C23.2083 8.60367 23.563 8.95833 24 8.95833C24.437 8.95833 24.7917 8.60367 24.7917 8.16667V6.60312C33.7668 7.00687 40.9931 14.2332 41.3969 23.2083H39.8333C39.3955 23.2083 39.0417 23.563 39.0417 24C39.0417 24.437 39.3955 24.7917 39.8333 24.7917H41.3969C40.9931 33.7668 33.7668 40.9931 24.7917 41.3969Z" fill="#BD272D"/>
<path d="M33.6467 12.1747L19.8082 19.0793C19.4946 19.2352 19.2355 19.4943 19.0796 19.8079L12.1758 33.6462C11.8582 34.2822 11.9776 35.0172 12.4803 35.52C12.7963 35.8359 13.204 36 13.6207 36C13.8676 36 14.1178 35.9423 14.3533 35.8246L28.191 28.9208C28.5045 28.7649 28.7636 28.5058 28.9196 28.1923L35.8242 14.3539C36.1418 13.7179 36.0224 12.9829 35.5197 12.4801C35.0177 11.9782 34.2826 11.858 33.6459 12.1756L33.6467 12.1747ZM27.4674 27.467L13.6288 34.3715L20.5327 20.5332L34.3712 13.6286L27.4674 27.467Z" fill="#BD272D"/>
<path d="M24 27C25.6545 27 27 25.6545 27 24C27 22.3455 25.6545 21 24 21C22.3455 21 21 22.3455 21 24C21 25.6545 22.3455 27 24 27ZM24 22.5C24.8273 22.5 25.5 23.1727 25.5 24C25.5 24.8273 24.8273 25.5 24 25.5C23.1727 25.5 22.5 24.8273 22.5 24C22.5 23.1727 23.1727 22.5 24 22.5Z" fill="#BD272D"/>
</svg>
