<svg width="35" height="35" viewBox="0 0 35 35" fill="none" xmlns="http://www.w3.org/2000/svg">
<path d="M33.9835 13.5261C33.6465 12.4887 32.7667 11.7469 31.6873 11.59L24.2163 10.5043C23.8595 10.4525 23.5515 10.2288 23.3922 9.9056L20.0512 3.13563C19.5682 2.15758 18.5907 1.54987 17.5 1.54987C16.4093 1.54987 15.4318 2.15758 14.9488 3.13563L11.6078 9.90577C11.4485 10.2288 11.1405 10.4525 10.7837 10.5043L3.31269 11.59C2.2333 11.7469 1.35351 12.4887 1.0165 13.5261C0.679491 14.5634 0.955321 15.6809 1.73633 16.4421L7.14219 21.7116C7.40024 21.9632 7.51782 22.3255 7.45698 22.6808L6.18105 30.1213C5.99648 31.1963 6.42988 32.2624 7.3124 32.9036C8.19492 33.5448 9.34336 33.6272 10.3083 33.1203L16.9904 29.6071C17.3096 29.4393 17.6904 29.4393 18.0096 29.6071L24.6917 33.1203C25.1118 33.3411 25.5661 33.4501 26.0183 33.4501C26.6055 33.4501 27.1889 33.2659 27.6876 32.9036C28.5701 32.2624 29.0035 31.1963 28.8189 30.1215L27.543 22.6806C27.4822 22.3255 27.5998 21.9632 27.8578 21.7116L33.2637 16.4423C34.0447 15.6809 34.3205 14.5634 33.9835 13.5261ZM32.0421 15.1891L26.6362 20.4586C25.9656 21.1124 25.6597 22.0537 25.8183 22.9764L27.0942 30.4173C27.1664 30.8372 27.0037 31.2375 26.6588 31.4879C26.3146 31.7386 25.8836 31.7695 25.5059 31.5712L18.8238 28.0581C18.4092 27.8402 17.9546 27.7313 17.5 27.7313C17.0454 27.7313 16.5905 27.8402 16.1762 28.0581L9.49409 31.5712C9.11675 31.7693 8.68608 31.7384 8.34121 31.4879C7.99634 31.2375 7.83364 30.8372 7.90576 30.4172L9.18169 22.9766C9.34028 22.0537 9.03437 21.1124 8.36377 20.4586L2.95791 15.1889C2.65268 14.8916 2.54912 14.472 2.68071 14.0668C2.8123 13.6616 3.14282 13.383 3.56426 13.3219L11.0353 12.2361C11.9622 12.1015 12.7627 11.5199 13.1773 10.6801L16.5184 3.91014C16.7067 3.52801 17.0738 3.29987 17.5 3.29987C17.9262 3.29987 18.2933 3.52802 18.4816 3.91014L21.8227 10.6799C22.2373 11.5199 23.0378 12.1015 23.9647 12.2361L31.4357 13.3219C31.8572 13.383 32.1877 13.6616 32.3193 14.0668C32.4509 14.472 32.3473 14.8916 32.0421 15.1891Z" fill="#BD272D"/>
</svg>
