<svg width="33" height="33" viewBox="0 0 33 33" fill="none" xmlns="http://www.w3.org/2000/svg">
<path d="M16.5 31.2813C12.5798 31.2813 8.8201 29.724 6.04808 26.9519C3.27606 24.1799 1.71875 20.4202 1.71875 16.5C1.71875 12.5798 3.27606 8.82012 6.04808 6.0481C8.8201 3.27607 12.5798 1.71877 16.5 1.71877C18.8035 1.71114 21.0756 2.25324 23.1275 3.30002C23.2485 3.36141 23.3562 3.44603 23.4445 3.54905C23.5327 3.65207 23.5999 3.77146 23.642 3.90042C23.6841 4.02938 23.7004 4.16537 23.69 4.30063C23.6796 4.4359 23.6426 4.56779 23.5812 4.68877C23.5199 4.80975 23.4352 4.91745 23.3322 5.00573C23.2292 5.09401 23.1098 5.16113 22.9808 5.20326C22.8519 5.2454 22.7159 5.26172 22.5806 5.2513C22.4454 5.24087 22.3135 5.20391 22.1925 5.14252C20.4323 4.23534 18.4802 3.76381 16.5 3.76752C13.9851 3.76752 11.5266 4.51312 9.43527 5.91006C7.34398 7.30701 5.71378 9.2926 4.75073 11.6158C3.78767 13.9391 3.535 16.4957 4.02464 18.9625C4.51428 21.4293 5.72426 23.6956 7.50164 25.4749C9.27901 27.2542 11.544 28.4666 14.0103 28.959C16.4766 29.4513 19.0334 29.2013 21.3577 28.2408C23.682 27.2803 25.6694 25.6522 27.0686 23.5624C28.4678 21.4727 29.216 19.015 29.2188 16.5C29.2259 16.3855 29.2259 16.2707 29.2188 16.1563C29.1932 15.8828 29.2774 15.6103 29.4527 15.3989C29.6281 15.1874 29.8802 15.0543 30.1538 15.0288C30.4273 15.0032 30.6997 15.0874 30.9111 15.2628C31.1226 15.4381 31.2557 15.6903 31.2812 15.9638C31.2812 16.1563 31.2812 16.3213 31.2812 16.5C31.2776 20.4191 29.7191 24.1767 26.9479 26.9479C24.1767 29.7192 20.4191 31.2776 16.5 31.2813Z" fill="#BD272D"/>
<path d="M16.2526 21.1888C16.1189 21.1908 15.9863 21.1649 15.8632 21.1128C15.7401 21.0607 15.6292 20.9836 15.5376 20.8863L8.89632 14.3688C8.7032 14.1754 8.59473 13.9133 8.59473 13.64C8.59473 13.3667 8.7032 13.1046 8.89632 12.9113C9.09372 12.7206 9.35747 12.614 9.63194 12.614C9.90642 12.614 10.1702 12.7206 10.3676 12.9113L16.2663 18.7275L29.5351 5.67877C29.7325 5.48806 29.9962 5.38147 30.2707 5.38147C30.5452 5.38147 30.8089 5.48806 31.0063 5.67877C31.1994 5.87213 31.3079 6.13424 31.3079 6.40752C31.3079 6.6808 31.1994 6.94291 31.0063 7.13627L17.0088 20.8863C16.9104 20.9861 16.7924 21.0644 16.6623 21.1165C16.5321 21.1685 16.3927 21.1932 16.2526 21.1888Z" fill="#BD272D"/>
</svg>
