<svg width="22" height="22" viewBox="0 0 22 22" fill="none" xmlns="http://www.w3.org/2000/svg">
<path d="M16.225 13.156C16.5 13.299 16.676 13.376 16.731 13.486C16.797 13.607 16.775 14.157 16.5 14.784C16.28 15.4 15.136 15.994 14.63 16.016C14.124 16.038 14.113 16.412 11.374 15.213C8.635 14.014 6.985 11.088 6.853 10.901C6.721 10.714 5.797 9.383 5.841 8.03C5.896 6.688 6.6 6.05 6.886 5.786C7.15 5.5 7.447 5.467 7.634 5.5H8.151C8.316 5.5 8.547 5.434 8.756 5.995L9.515 8.052C9.581 8.195 9.625 8.36 9.526 8.536L9.229 8.987L8.8 9.449C8.668 9.581 8.514 9.724 8.668 9.999C8.8 10.285 9.35 11.198 10.12 11.957C11.121 12.925 12.001 13.244 12.265 13.387C12.529 13.541 12.694 13.519 12.859 13.343L13.75 12.309C13.959 12.034 14.135 12.1 14.388 12.188L16.225 13.156ZM11 0C12.4445 0 13.8749 0.284523 15.2095 0.837325C16.5441 1.39013 17.7567 2.20038 18.7782 3.22183C19.7996 4.24327 20.6099 5.4559 21.1627 6.79048C21.7155 8.12506 22 9.55546 22 11C22 13.9174 20.8411 16.7153 18.7782 18.7782C16.7153 20.8411 13.9174 22 11 22C8.833 22 6.82 21.373 5.115 20.295L0 22L1.705 16.885C0.627 15.18 0 13.167 0 11C0 8.08262 1.15893 5.28473 3.22183 3.22183C5.28473 1.15893 8.08262 0 11 0ZM11 2.2C8.66609 2.2 6.42778 3.12714 4.77746 4.77746C3.12714 6.42778 2.2 8.66609 2.2 11C2.2 12.892 2.794 14.641 3.806 16.071L2.75 19.25L5.929 18.194C7.359 19.206 9.108 19.8 11 19.8C13.3339 19.8 15.5722 18.8729 17.2225 17.2225C18.8729 15.5722 19.8 13.3339 19.8 11C19.8 8.66609 18.8729 6.42778 17.2225 4.77746C15.5722 3.12714 13.3339 2.2 11 2.2Z" fill="#BD272D"/>
</svg>
