<svg width="17" height="24" viewBox="0 0 17 24" fill="none" xmlns="http://www.w3.org/2000/svg">
<path d="M8.50002 10.9929C7.73279 10.9929 6.99698 10.6881 6.45447 10.1456C5.91195 9.60304 5.60717 8.86723 5.60717 8.1C5.60717 7.33277 5.91195 6.59696 6.45447 6.05444C6.99698 5.51193 7.73279 5.20714 8.50002 5.20714C9.26726 5.20714 10.0031 5.51193 10.5456 6.05444C11.0881 6.59696 11.3929 7.33277 11.3929 8.1C11.3929 8.4799 11.3181 8.85607 11.1727 9.20705C11.0273 9.55803 10.8142 9.87693 10.5456 10.1456C10.277 10.4142 9.95805 10.6273 9.60707 10.7727C9.2561 10.918 8.87992 10.9929 8.50002 10.9929ZM8.50002 0C6.35177 0 4.2915 0.85339 2.77246 2.37244C1.25341 3.89148 0.400024 5.95175 0.400024 8.1C0.400024 14.175 8.50002 23.1429 8.50002 23.1429C8.50002 23.1429 16.6 14.175 16.6 8.1C16.6 5.95175 15.7466 3.89148 14.2276 2.37244C12.7085 0.85339 10.6483 0 8.50002 0Z" fill="#BD272D"/>
</svg>
