<svg width="21" height="21" viewBox="0 0 21 21" fill="none" xmlns="http://www.w3.org/2000/svg">
<path d="M10.5 9.51563C11.2139 9.51563 11.9117 9.30394 12.5053 8.90734C13.0988 8.51073 13.5614 7.94703 13.8346 7.2875C14.1078 6.62797 14.1793 5.90225 14.04 5.2021C13.9008 4.50195 13.557 3.85882 13.0522 3.35404C12.5474 2.84926 11.9043 2.5055 11.2042 2.36623C10.504 2.22696 9.77828 2.29844 9.11875 2.57162C8.45922 2.84481 7.89552 3.30743 7.49891 3.90099C7.10231 4.49455 6.89062 5.19238 6.89062 5.90625C6.89062 6.86352 7.2709 7.78158 7.94779 8.45847C8.62468 9.13535 9.54273 9.51563 10.5 9.51563ZM10.5 2.95313C11.0841 2.95313 11.655 3.12632 12.1407 3.45082C12.6263 3.77531 13.0048 4.23653 13.2283 4.77614C13.4518 5.31575 13.5103 5.90953 13.3964 6.48238C13.2824 7.05523 13.0012 7.58142 12.5882 7.99443C12.1752 8.40743 11.649 8.68869 11.0761 8.80263C10.5033 8.91658 9.9095 8.8581 9.36989 8.63458C8.83027 8.41107 8.36906 8.03256 8.04457 7.54692C7.72007 7.06128 7.54688 6.49032 7.54688 5.90625C7.54688 5.12303 7.85801 4.3719 8.41183 3.81808C8.96564 3.26426 9.71678 2.95313 10.5 2.95313Z" fill="#2A2A3B"/>
<path d="M11.1562 9.84375H9.84375C7.84219 9.84375 5.92262 10.6389 4.5073 12.0542C3.09199 13.4695 2.29688 15.3891 2.29688 17.3906C2.29688 17.6517 2.40059 17.9021 2.58519 18.0867C2.7698 18.2713 3.02018 18.375 3.28125 18.375H17.7188C17.9798 18.375 18.2302 18.2713 18.4148 18.0867C18.5994 17.9021 18.7031 17.6517 18.7031 17.3906C18.7031 15.3891 17.908 13.4695 16.4927 12.0542C15.0774 10.6389 13.1578 9.84375 11.1562 9.84375ZM17.7188 17.7188H3.28125C3.19423 17.7188 3.11077 17.6842 3.04923 17.6226C2.9877 17.5611 2.95312 17.4776 2.95312 17.3906C2.95312 15.5631 3.6791 13.8105 4.97134 12.5182C6.26359 11.226 8.01624 10.5 9.84375 10.5H11.1562C12.9838 10.5 14.7364 11.226 16.0287 12.5182C17.3209 13.8105 18.0469 15.5631 18.0469 17.3906C18.0469 17.4776 18.0123 17.5611 17.9508 17.6226C17.8892 17.6842 17.8058 17.7188 17.7188 17.7188Z" fill="#2A2A3B"/>
</svg>
