<svg width="40" height="40" viewBox="0 0 40 40" fill="none" xmlns="http://www.w3.org/2000/svg">
<circle cx="20" cy="20" r="20" fill="#2D2D55"/>
<path d="M14.62 18.79C16.06 21.62 18.38 23.94 21.21 25.38L23.41 23.18C23.69 22.9 24.08 22.82 24.43 22.93C25.55 23.3 26.75 23.5 28 23.5C28.2652 23.5 28.5196 23.6054 28.7071 23.7929C28.8946 23.9804 29 24.2348 29 24.5V28C29 28.2652 28.8946 28.5196 28.7071 28.7071C28.5196 28.8946 28.2652 29 28 29C23.4913 29 19.1673 27.2089 15.9792 24.0208C12.7911 20.8327 11 16.5087 11 12C11 11.7348 11.1054 11.4804 11.2929 11.2929C11.4804 11.1054 11.7348 11 12 11H15.5C15.7652 11 16.0196 11.1054 16.2071 11.2929C16.3946 11.4804 16.5 11.7348 16.5 12C16.5 13.25 16.7 14.45 17.07 15.57C17.18 15.92 17.1 16.31 16.82 16.59L14.62 18.79Z" fill="white"/>
</svg>
