<svg width="40" height="40" viewBox="0 0 40 40" fill="none" xmlns="http://www.w3.org/2000/svg">
<circle cx="20" cy="20" r="20" fill="#2D2D55"/>
<path d="M24.75 21.96C25 22.09 25.16 22.16 25.21 22.26C25.27 22.37 25.25 22.87 25 23.44C24.8 24 23.76 24.54 23.3 24.56C22.84 24.58 22.83 24.92 20.34 23.83C17.85 22.74 16.35 20.08 16.23 19.91C16.11 19.74 15.27 18.53 15.31 17.3C15.36 16.08 16 15.5 16.26 15.26C16.5 15 16.77 14.97 16.94 15H17.41C17.56 15 17.77 14.94 17.96 15.45L18.65 17.32C18.71 17.45 18.75 17.6 18.66 17.76L18.39 18.17L18 18.59C17.88 18.71 17.74 18.84 17.88 19.09C18 19.35 18.5 20.18 19.2 20.87C20.11 21.75 20.91 22.04 21.15 22.17C21.39 22.31 21.54 22.29 21.69 22.13L22.5 21.19C22.69 20.94 22.85 21 23.08 21.08L24.75 21.96ZM20 10C21.3132 10 22.6136 10.2587 23.8268 10.7612C25.0401 11.2638 26.1425 12.0003 27.0711 12.9289C27.9997 13.8575 28.7362 14.9599 29.2388 16.1732C29.7413 17.3864 30 18.6868 30 20C30 22.6522 28.9464 25.1957 27.0711 27.0711C25.1957 28.9464 22.6522 30 20 30C18.03 30 16.2 29.43 14.65 28.45L10 30L11.55 25.35C10.57 23.8 10 21.97 10 20C10 17.3478 11.0536 14.8043 12.9289 12.9289C14.8043 11.0536 17.3478 10 20 10ZM20 12C17.8783 12 15.8434 12.8429 14.3431 14.3431C12.8429 15.8434 12 17.8783 12 20C12 21.72 12.54 23.31 13.46 24.61L12.5 27.5L15.39 26.54C16.69 27.46 18.28 28 20 28C22.1217 28 24.1566 27.1571 25.6569 25.6569C27.1571 24.1566 28 22.1217 28 20C28 17.8783 27.1571 15.8434 25.6569 14.3431C24.1566 12.8429 22.1217 12 20 12Z" fill="white"/>
</svg>
